# xmcd CD database file
#
# Track frame offsets:
#	150
#	17087
#	30602
#	49042
#	62352
#	80722
#	100737
#	119555
#	137555
#	154452
#	167980
#	186387
#	199672
#	218007
#	238037
#	256837
#
# Disc length: 3664 seconds
#
# Revision: 0
# Processed by: cddbd v1.5.1PL2 Copyright (c) Steve Scherf et al.
# Submitted via: CDex 1.51
#
DISCID=de0e4e10
DTITLE=Various Artist - Karaoke StarSeries - Hits of Clint Black - Vol 2
DYEAR=2004
DGENRE=Country
TTITLE0=The Shoes You're Wearing - Performance
TTITLE1=A Good Run Of Bad Luck - Performance
TTITLE2=Wherever You Go - Performance
TTITLE3=One Emotion - Performance
TTITLE4=No Time To Kill - Performance
TTITLE5=Still Holding On - Performance
TTITLE6=Something That We Do - Performance
TTITLE7=Nothin' But The Taillights - Performance
TTITLE8=The Shoes You're Wearing - Demo
TTITLE9=A Good Run Of Bad Luck - Demo
TTITLE10=Wherever You Go - Demo
TTITLE11=One Emotion - Demo
TTITLE12=No Time To Kill - Demo
TTITLE13=Still Holding On - Demo
TTITLE14=Something That We Do - Demo
TTITLE15=Nothin' But The Taillights - Demo
EXTD=YEAR: 2004
EXTT0=
EXTT1=
EXTT2=
EXTT3=
EXTT4=
EXTT5=
EXTT6=
EXTT7=
EXTT8=
EXTT9=
EXTT10=
EXTT11=
EXTT12=
EXTT13=
EXTT14=
EXTT15=
PLAYORDER=
